<?xml version="1.0" encoding="utf-8"?>
<!-- Svg Vector Icons : http://www.onlinewebfonts.com/icon -->
<!DOCTYPE svg PUBLIC "-//W3C//DTD SVG 1.1//EN" "http://www.w3.org/Graphics/SVG/1.1/DTD/svg11.dtd">
<svg version="1.1" xmlns="http://www.w3.org/2000/svg" xmlns:xlink="http://www.w3.org/1999/xlink" x="0px" y="0px" viewBox="0 0 1000 1000" enable-background="new 0 0 1000 1000" xml:space="preserve">
<metadata> Svg Vector Icons : http://www.onlinewebfonts.com/icon </metadata>
<g><path d="M61,990v-40.8H939V990H61 M694,928.7H591.9l-0.4-524.5l-122.1-88L183.5,438.8v490H61v-40.8h81.7V418.3l326.7-142.9l163.3,122.5v490H694V928.7z M243.9,502.3l143.8-63.5v81.7l-142.9,61.3L243.9,502.3L243.9,502.3z M387.7,622.5v81.7L244.8,745l-0.9-77.1L387.7,622.5z M244.8,826.7l142.9-40.8v102.1H244.8V826.7z M734.8,112.1v816.7H796V184.4L734.8,112.1z M469.4,377.5v551.2h61.2V418.3L469.4,377.5z M939,928.7H836.9V173.3L734.8,50.8L346.9,214.2v61.3L306,316.2V193.7L755.2,10l122.5,163.3v714.6H939V928.7z"/></g>
</svg>